<svg xmlns="http://www.w3.org/2000/svg" width="4560" height="2720" viewBox="0 0 4560 2720">
  <defs>
    <style>
      .canvas{fill:#eee8da}.frame{fill:#cfe7ab;stroke:#263f38;stroke-width:4}.hud{fill:#fff8e7;stroke:#263f38;stroke-width:3}
      .panel{fill:#fffdf7;stroke:#263f38;stroke-width:3}.ink{fill:#263f38}.muted{fill:#65766d}.grass{fill:#b8dc8d;stroke:#8fb46f;stroke-width:3}
      .road{fill:#e6c484;stroke:#94704b;stroke-width:3}.roadline{fill:none;stroke:#c69c5e;stroke-width:4;stroke-dasharray:10 10}
      .footprint{fill:#62a98a;fill-opacity:.34;stroke:#2f7e69;stroke-width:5}.invalid{fill:#dc6f5e;fill-opacity:.44;stroke:#b4483c;stroke-width:5}
      .warn{fill:#f4c75e;stroke:#263f38;stroke-width:3}.house{fill:#e1886f;stroke:#263f38;stroke-width:4}.roof{fill:#9d5349;stroke:#263f38;stroke-width:4}
      .dairy{fill:#f5e5bd;stroke:#263f38;stroke-width:4}.teal{fill:#65a998;stroke:#263f38;stroke-width:4}.wood{fill:#b57d4e;stroke:#263f38;stroke-width:4}
      .white{fill:#fffdf7}.gold{fill:#f3c45b}.ok{fill:#62a36d}.coral{fill:#d96554}.blue{fill:#71a7ba}.cream{fill:#f7efd8}
      .path{fill:none;stroke:#278d79;stroke-width:9;stroke-linecap:round;stroke-dasharray:16 12}.path2{fill:none;stroke:#e0a32e;stroke-width:8;stroke-linecap:round;stroke-dasharray:13 11}
      .t1{font:700 27px Arial,'Microsoft YaHei',sans-serif}.t2{font:700 21px Arial,'Microsoft YaHei',sans-serif}
      .body{font:18px Arial,'Microsoft YaHei',sans-serif}.small{font:15px Arial,'Microsoft YaHei',sans-serif}.tiny{font:13px Arial,'Microsoft YaHei',sans-serif}
      .button{fill:#d96554;stroke:#263f38;stroke-width:3}.button2{fill:#3c9a85;stroke:#263f38;stroke-width:3}.chip{fill:#fff8e7;stroke:#263f38;stroke-width:2}
    </style>
    <filter id="shadow"><feDropShadow dx="0" dy="6" stdDeviation="6" flood-color="#263f38" flood-opacity=".18"/></filter>
    <pattern id="hatch" width="18" height="18" patternUnits="userSpaceOnUse" patternTransform="rotate(45)">
      <rect width="8" height="18" fill="#b4483c" fill-opacity=".34"/>
    </pattern>
  </defs>
  <rect width="4560" height="2720" class="canvas"/>
  <g id="F004-RESIDENT.2-penpot-screen-source">

    <g id="12_Expansion_Placement_720x1280" transform="translate(20 20)">
      <rect width="700" height="1240" rx="28" class="frame"/>
      <rect id="f0042-top-hud-placement" x="22" y="22" width="656" height="92" rx="22" class="hud" filter="url(#shadow)"/>
      <text x="48" y="60" class="t2 ink">松果镇 · 扩建</text>
      <text x="296" y="60" class="body ink">金币 420</text><text x="468" y="60" class="body ink">仓储 24/40</text>
      <rect x="602" y="42" width="48" height="48" rx="15" class="chip"/><path d="M616 67 H636 M626 57 V77" stroke="#263f38" stroke-width="4" stroke-linecap="round"/>
      <text x="36" y="150" class="t1 ink">放置乳畜牧场</text>
      <text x="36" y="180" class="small muted">3×3 占地 · 入口必须连接道路</text>
      <g id="placement-world-valid" transform="translate(36 200)">
        <path d="M0 260 L310 88 L628 260 L318 432 Z" class="grass"/>
        <path d="M35 290 L145 228 L255 290 L145 352 Z" class="road"/>
        <path d="M145 352 L255 290 L365 352 L255 414 Z" class="road"/>
        <path d="M255 290 L365 228 L475 290 L365 352 Z" class="road"/>
        <path d="M365 352 L475 290 L585 352 L475 414 Z" class="road"/>
        <g id="placement-footprint-3x3">
          <path d="M150 176 L250 120 L350 176 L250 232 Z" class="footprint"/>
          <path d="M250 120 L350 64 L450 120 L350 176 Z" class="footprint"/>
          <path d="M350 176 L450 120 L550 176 L450 232 Z" class="footprint"/>
          <path d="M250 232 L350 176 L450 232 L350 288 Z" class="footprint"/>
          <path d="M350 176 L450 120 L550 176 L450 232 Z" fill="none" stroke="#2f7e69" stroke-width="5"/>
          <path d="M450 232 L550 176 L650 232 L550 288 Z" class="footprint" transform="translate(-100 0)"/>
          <path d="M350 288 L450 232 L550 288 L450 344 Z" class="footprint"/>
          <path d="M450 232 L550 176 L650 232 L550 288 Z" class="footprint"/>
          <path d="M450 344 L550 288 L650 344 L550 400 Z" class="footprint" transform="translate(-100 -56)"/>
        </g>
        <g id="dairy-pasture-preview" opacity=".92" transform="translate(235 78)">
          <path d="M0 160 L145 78 L290 160 L145 242 Z" fill="#a9cf7c" stroke="#263f38" stroke-width="4"/>
          <path d="M18 153 L145 82 L272 153" fill="none" stroke="#b57d4e" stroke-width="14" stroke-linecap="round"/>
          <path d="M25 170 L145 238 L266 170" fill="none" stroke="#b57d4e" stroke-width="14" stroke-linecap="round"/>
          <rect x="104" y="105" width="82" height="82" rx="16" class="dairy"/>
          <path d="M95 118 L145 70 L195 118" class="roof"/>
          <ellipse cx="92" cy="185" rx="38" ry="25" class="white" stroke="#263f38" stroke-width="4"/>
          <circle cx="70" cy="179" r="11" class="ink"/><circle cx="107" cy="192" r="8" class="ink"/>
        </g>
        <circle id="placement-entrance-valid" cx="365" cy="352" r="17" class="gold" stroke="#263f38" stroke-width="4"/>
        <path d="M365 335 L365 300" class="path2"/>
      </g>
      <rect id="placement-context-panel" x="22" y="820" width="656" height="380" rx="28" class="panel" filter="url(#shadow)"/>
      <text x="52" y="870" class="t2 ink">乳畜牧场</text>
      <rect x="246" y="842" width="94" height="46" rx="14" class="chip"/><text x="268" y="872" class="small ink">3×3</text>
      <rect x="356" y="842" width="132" height="46" rx="14" class="chip"/><text x="377" y="872" class="small ink">入口已连路</text>
      <text x="52" y="922" class="body muted">占地完整，未覆盖道路或建筑。</text>
      <g transform="translate(52 958)"><circle cx="20" cy="20" r="18" class="gold" stroke="#263f38" stroke-width="3"/><text x="52" y="27" class="body ink">建造成本 240</text></g>
      <rect id="placement-primary-cta" x="52" y="1040" width="370" height="104" rx="26" class="button2"/>
      <text x="165" y="1104" class="t2 white">确认建造</text>
      <rect x="446" y="1040" width="180" height="104" rx="26" class="chip"/><text x="505" y="1104" class="body ink">取消</text>
      <text x="24" y="1224" class="tiny muted">12 · 合法放置 · 单一主决定</text>
    </g>

    <g id="13_Placement_Invalid_720x1280" transform="translate(780 20)">
      <rect width="700" height="1240" rx="28" class="frame"/>
      <rect x="22" y="22" width="656" height="92" rx="22" class="hud" filter="url(#shadow)"/>
      <text x="48" y="60" class="t2 ink">松果镇 · 扩建</text><text x="296" y="60" class="body ink">金币 420</text>
      <text x="36" y="150" class="t1 ink">位置冲突</text>
      <text x="36" y="180" class="small muted">移动候选对象；草稿不会被清空</text>
      <g id="placement-world-invalid" transform="translate(36 210)">
        <path d="M0 250 L310 78 L628 250 L318 422 Z" class="grass"/>
        <path d="M40 272 L150 210 L260 272 L150 334 Z" class="road"/>
        <path d="M150 334 L260 272 L370 334 L260 396 Z" class="road"/>
        <path d="M260 272 L370 210 L480 272 L370 334 Z" class="road"/>
        <g transform="translate(56 96)">
          <path d="M0 125 L112 62 L224 125 L112 188 Z" class="house"/>
          <path d="M0 125 L112 14 L224 125 L112 188 Z" class="roof"/>
          <rect x="96" y="130" width="34" height="48" rx="5" class="gold"/>
        </g>
        <g id="invalid-overlap-cells">
          <path d="M160 162 L260 106 L360 162 L260 218 Z" class="invalid"/>
          <path d="M260 218 L360 162 L460 218 L360 274 Z" class="invalid"/>
          <path d="M360 274 L460 218 L560 274 L460 330 Z" class="invalid"/>
          <path d="M160 162 L260 106 L360 162 L260 218 Z" fill="url(#hatch)"/>
          <path d="M260 218 L360 162 L460 218 L360 274 Z" fill="url(#hatch)"/>
          <path d="M360 274 L460 218 L560 274 L460 330 Z" fill="url(#hatch)"/>
        </g>
        <g id="invalid-pasture-preview" opacity=".76" transform="translate(212 86)">
          <path d="M0 160 L145 78 L290 160 L145 242 Z" fill="#a9cf7c" stroke="#b4483c" stroke-width="5"/>
          <path d="M18 153 L145 82 L272 153 M25 170 L145 238 L266 170" fill="none" stroke="#b57d4e" stroke-width="14"/>
          <rect x="104" y="105" width="82" height="82" rx="16" class="dairy"/>
        </g>
        <circle cx="260" cy="218" r="24" class="coral" stroke="#263f38" stroke-width="4"/>
        <path d="M247 205 L273 231 M273 205 L247 231" stroke="#fffdf7" stroke-width="6" stroke-linecap="round"/>
      </g>
      <rect id="invalid-context-panel" x="22" y="820" width="656" height="380" rx="28" class="panel" filter="url(#shadow)"/>
      <text x="52" y="872" class="t2 ink">无法放置</text>
      <rect x="252" y="842" width="154" height="46" rx="14" fill="#fde1db" stroke="#b4483c" stroke-width="2"/>
      <text x="274" y="872" class="small ink">与住房重叠</text>
      <text x="52" y="924" class="body muted">冲突格已用斜纹标出；移动后自动重验。</text>
      <rect x="52" y="1004" width="370" height="104" rx="26" fill="#bfc9c4" stroke="#65766d" stroke-width="3"/>
      <text x="145" y="1068" class="t2 white">确认建造</text>
      <rect x="446" y="1004" width="180" height="104" rx="26" class="chip"/><text x="505" y="1068" class="body ink">取消</text>
      <text x="52" y="1154" class="small muted">第一原因：重叠 · 不扣费 · 不弹模态</text>
      <text x="24" y="1224" class="tiny muted">13 · 非法放置 · 形状与纹理双重提示</text>
    </g>

    <g id="14_Second_Home_Invite_720x1280" transform="translate(1540 20)">
      <rect width="700" height="1240" rx="28" class="frame"/>
      <rect x="22" y="22" width="656" height="92" rx="22" class="hud" filter="url(#shadow)"/>
      <text x="48" y="60" class="t2 ink">松果镇 · 住房</text><text x="296" y="60" class="body ink">金币 180</text>
      <text x="36" y="150" class="t1 ink">新邻居到访</text>
      <text x="36" y="180" class="small muted">空住房 + 可达道路 = 可邀请</text>
      <g id="invite-world" transform="translate(36 210)">
        <path d="M0 260 L310 88 L628 260 L318 432 Z" class="grass"/>
        <path d="M60 300 L170 238 L280 300 L170 362 Z" class="road"/>
        <path d="M170 362 L280 300 L390 362 L280 424 Z" class="road"/>
        <g id="second-house-2x2" transform="translate(285 82)">
          <path d="M0 182 L155 94 L310 182 L155 270 Z" fill="#e6c78d" stroke="#263f38" stroke-width="4"/>
          <path d="M32 170 L155 101 L278 170 L155 239 Z" class="house"/>
          <path d="M32 170 L155 38 L278 170 L155 239 Z" class="roof"/>
          <rect x="136" y="174" width="42" height="62" rx="7" class="gold"/>
          <circle cx="254" cy="205" r="16" class="warn"/><path d="M246 205 H262" stroke="#263f38" stroke-width="4"/>
        </g>
        <path d="M280 300 C330 312 360 320 420 304" class="path"/>
        <g id="bear-resident" transform="translate(185 190)">
          <circle cx="25" cy="22" r="18" fill="#8e6145" stroke="#263f38" stroke-width="4"/>
          <circle cx="78" cy="22" r="18" fill="#8e6145" stroke="#263f38" stroke-width="4"/>
          <circle cx="52" cy="53" r="42" fill="#9f6b49" stroke="#263f38" stroke-width="4"/>
          <ellipse cx="52" cy="108" rx="38" ry="49" fill="#d49a62" stroke="#263f38" stroke-width="4"/>
          <path d="M22 91 Q52 76 82 91 L78 132 Q52 146 26 132 Z" class="teal"/>
          <circle cx="38" cy="50" r="5" class="ink"/><circle cx="66" cy="50" r="5" class="ink"/>
          <ellipse cx="52" cy="65" rx="9" ry="7" class="ink"/>
        </g>
      </g>
      <rect id="invite-context-panel" x="22" y="820" width="656" height="380" rx="28" class="panel" filter="url(#shadow)"/>
      <text x="52" y="870" class="t2 ink">熊居民 · 阿圆</text>
      <text x="52" y="910" class="body muted">喜欢照料动物与制作乳品</text>
      <g transform="translate(52 952)"><circle cx="20" cy="20" r="18" class="gold" stroke="#263f38" stroke-width="3"/><text x="52" y="27" class="body ink">邀请成本 20</text></g>
      <rect id="invite-primary-cta" x="52" y="1025" width="370" height="104" rx="26" class="button"/>
      <text x="157" y="1089" class="t2 white">邀请入住</text>
      <rect x="446" y="1025" width="180" height="104" rx="26" class="chip"/><text x="505" y="1089" class="body ink">稍后</text>
      <text x="52" y="1166" class="small muted">成功后熊从小镇入口沿路到家</text>
      <text x="24" y="1224" class="tiny muted">14 · 第二住房 · 邀请成本只扣一次</text>
    </g>

    <g id="15_Dairy_Assignment_720x1280" transform="translate(2300 20)">
      <rect width="700" height="1240" rx="28" class="frame"/>
      <rect x="22" y="22" width="656" height="92" rx="22" class="hud" filter="url(#shadow)"/>
      <text x="48" y="60" class="t2 ink">松果镇 · 岗位</text><text x="296" y="60" class="body ink">居民 2/2</text>
      <text x="36" y="150" class="t1 ink">安排乳品岗位</text>
      <text x="36" y="180" class="small muted">一次派遣，居民自主完成整条链</text>
      <g id="assignment-world" transform="translate(36 205)">
        <path d="M0 270 L310 98 L628 270 L318 442 Z" class="grass"/>
        <path d="M60 310 L170 248 L280 310 L170 372 Z" class="road"/>
        <path d="M170 372 L280 310 L390 372 L280 434 Z" class="road"/>
        <path d="M280 310 L390 248 L500 310 L390 372 Z" class="road"/>
        <g transform="translate(20 130) scale(.62)">
          <path d="M0 182 L155 94 L310 182 L155 270 Z" class="house"/>
          <path d="M32 170 L155 38 L278 170 L155 239 Z" class="roof"/>
        </g>
        <g id="dairy-pasture" transform="translate(320 55) scale(.83)">
          <path d="M0 190 L160 100 L320 190 L160 280 Z" fill="#a9cf7c" stroke="#263f38" stroke-width="4"/>
          <path d="M20 180 L160 101 L300 180 M25 205 L160 278 L295 205" fill="none" stroke="#b57d4e" stroke-width="15"/>
          <rect x="115" y="122" width="90" height="86" rx="16" class="dairy"/>
          <ellipse cx="72" cy="215" rx="42" ry="27" class="white" stroke="#263f38" stroke-width="4"/>
          <circle cx="50" cy="210" r="11" class="ink"/><circle cx="84" cy="224" r="8" class="ink"/>
        </g>
        <g id="creamery-2x2" transform="translate(405 300) scale(.72)">
          <path d="M0 120 L110 58 L220 120 L110 182 Z" class="dairy"/>
          <path d="M0 120 L110 20 L220 120 L110 182 Z" class="teal"/>
          <rect x="78" y="118" width="64" height="58" rx="8" class="wood"/>
          <ellipse cx="165" cy="70" rx="27" ry="38" class="white" stroke="#263f38" stroke-width="4"/>
        </g>
        <path id="dairy-assignment-path" d="M145 270 C230 310 260 330 390 275 C465 240 500 225 530 215" class="path"/>
        <path d="M530 215 C560 250 555 330 535 378" class="path2"/>
        <g transform="translate(236 287) scale(.64)">
          <circle cx="25" cy="22" r="18" fill="#8e6145" stroke="#263f38" stroke-width="4"/><circle cx="78" cy="22" r="18" fill="#8e6145" stroke="#263f38" stroke-width="4"/>
          <circle cx="52" cy="53" r="42" fill="#9f6b49" stroke="#263f38" stroke-width="4"/><ellipse cx="52" cy="108" rx="38" ry="49" fill="#d49a62" stroke="#263f38" stroke-width="4"/>
          <path d="M22 91 Q52 76 82 91 L78 132 Q52 146 26 132 Z" class="teal"/>
        </g>
      </g>
      <rect id="assignment-context-panel" x="22" y="820" width="656" height="380" rx="28" class="panel" filter="url(#shadow)"/>
      <text x="52" y="870" class="t2 ink">乳品岗位 · 1 个空位</text>
      <text x="52" y="910" class="body muted">住房 B → 牧场 → 乳品工坊 → 装卸场</text>
      <rect x="52" y="948" width="574" height="68" rx="20" class="chip"/>
      <circle cx="88" cy="982" r="22" fill="#9f6b49" stroke="#263f38" stroke-width="3"/>
      <text x="126" y="989" class="body ink">阿圆 · 已入住 · 当前空闲</text>
      <rect id="assignment-primary-cta" x="52" y="1042" width="410" height="104" rx="26" class="button2"/>
      <text x="132" y="1106" class="t2 white">派遣到乳品岗位</text>
      <rect x="484" y="1042" width="142" height="104" rx="26" class="chip"/><text x="520" y="1106" class="body ink">取消</text>
      <text x="24" y="1224" class="tiny muted">15 · 长期岗位关系 · 奶牛不进入居民列表</text>
    </g>

    <g id="16_Dairy_Work_And_Truck_720x1280" transform="translate(3060 20)">
      <rect width="700" height="1240" rx="28" class="frame"/>
      <rect x="22" y="22" width="656" height="92" rx="22" class="hud" filter="url(#shadow)"/>
      <text x="48" y="60" class="t2 ink">松果镇 · 运转中</text><text x="296" y="60" class="body ink">金币 180</text><text x="480" y="60" class="body ink">仓储 25/40</text>
      <text x="36" y="150" class="t1 ink">居民自主完成乳品订单</text>
      <text x="36" y="180" class="small muted">照料 → 挤奶 → 搬运 → 加工 → 装车</text>
      <g id="dairy-work-world" transform="translate(36 200)">
        <path d="M0 300 L310 128 L628 300 L318 472 Z" class="grass"/>
        <path d="M40 340 L150 278 L260 340 L150 402 Z" class="road"/>
        <path d="M150 402 L260 340 L370 402 L260 464 Z" class="road"/>
        <path d="M260 340 L370 278 L480 340 L370 402 Z" class="road"/>
        <g transform="translate(65 80) scale(.74)">
          <path d="M0 190 L160 100 L320 190 L160 280 Z" fill="#a9cf7c" stroke="#263f38" stroke-width="4"/>
          <path d="M20 180 L160 101 L300 180 M25 205 L160 278 L295 205" fill="none" stroke="#b57d4e" stroke-width="15"/>
          <rect x="115" y="122" width="90" height="86" rx="16" class="dairy"/>
          <ellipse cx="72" cy="215" rx="42" ry="27" class="white" stroke="#263f38" stroke-width="4"/>
          <circle cx="50" cy="210" r="11" class="ink"/><circle cx="84" cy="224" r="8" class="ink"/>
        </g>
        <g transform="translate(360 80)">
          <path d="M0 120 L110 58 L220 120 L110 182 Z" class="dairy"/>
          <path d="M0 120 L110 20 L220 120 L110 182 Z" class="teal"/>
          <rect x="78" y="118" width="64" height="58" rx="8" class="wood"/>
          <ellipse cx="165" cy="70" rx="27" ry="38" class="white" stroke="#263f38" stroke-width="4"/>
        </g>
        <path d="M255 250 C310 280 340 300 410 265 C465 238 500 225 530 215" class="path"/>
        <path d="M530 215 C555 265 535 330 485 350" class="path"/>
        <g id="bear-working" transform="translate(322 262) scale(.66)">
          <circle cx="25" cy="22" r="18" fill="#8e6145" stroke="#263f38" stroke-width="4"/><circle cx="78" cy="22" r="18" fill="#8e6145" stroke="#263f38" stroke-width="4"/>
          <circle cx="52" cy="53" r="42" fill="#9f6b49" stroke="#263f38" stroke-width="4"/><ellipse cx="52" cy="108" rx="38" ry="49" fill="#d49a62" stroke="#263f38" stroke-width="4"/>
          <path d="M22 91 Q52 76 82 91 L78 132 Q52 146 26 132 Z" class="teal"/>
        </g>
        <g id="milk-carried-good" transform="translate(350 255)">
          <ellipse cx="18" cy="10" rx="14" ry="7" class="white" stroke="#263f38" stroke-width="3"/>
          <rect x="4" y="10" width="28" height="38" rx="7" class="white" stroke="#263f38" stroke-width="3"/>
          <path d="M10 6 V0 H26 V6" fill="none" stroke="#263f38" stroke-width="3"/>
        </g>
        <g id="dairy-order-truck" transform="translate(332 350)">
          <rect x="0" y="30" width="180" height="88" rx="18" class="dairy"/>
          <rect x="132" y="0" width="80" height="72" rx="15" class="teal"/>
          <circle cx="42" cy="126" r="20" class="ink"/><circle cx="165" cy="126" r="20" class="ink"/>
          <rect x="24" y="53" width="98" height="40" rx="8" class="white" stroke="#263f38" stroke-width="3"/>
          <rect x="30" y="59" width="86" height="28" rx="5" class="gold"/>
          <text x="56" y="81" class="small ink">1/1</text>
        </g>
      </g>
      <rect id="work-context-panel" x="22" y="820" width="656" height="380" rx="28" class="panel" filter="url(#shadow)"/>
      <text x="52" y="870" class="t2 ink">乳品车辆 · 已满载</text>
      <text x="52" y="910" class="body muted">阿圆已完成装载，车辆即将离场。</text>
      <g transform="translate(52 948)">
        <rect width="574" height="72" rx="20" class="chip"/>
        <rect x="20" y="19" width="120" height="34" rx="9" class="gold"/><text x="63" y="43" class="small ink">1/1</text>
        <text x="168" y="44" class="body ink">奖励将在离场检查点后入账</text>
      </g>
      <rect x="52" y="1045" width="320" height="92" rx="24" class="button2"/><text x="132" y="1102" class="t2 white">查看车辆</text>
      <text x="52" y="1170" class="small muted">无“挤奶 / 加工 / 收取 / 装车”按钮</text>
      <text x="24" y="1224" class="tiny muted">16 · 世界内因果 · 奖励幂等结算</text>
    </g>

    <g id="17_Two_Residents_Leisure_720x1280" transform="translate(3820 20)">
      <rect width="700" height="1240" rx="28" class="frame"/>
      <rect x="22" y="22" width="656" height="92" rx="22" class="hud" filter="url(#shadow)"/>
      <text x="48" y="60" class="t2 ink">松果镇 · 午后</text><text x="296" y="60" class="body ink">金币 260</text><text x="480" y="60" class="body ink">居民 2/2</text>
      <text x="36" y="150" class="t1 ink">工作完成，小镇仍在生活</text>
      <text x="36" y="180" class="small muted">低噪声日常，不新增数值或领奖按钮</text>
      <g id="leisure-world" transform="translate(36 210)">
        <path d="M0 330 L310 158 L628 330 L318 502 Z" class="grass"/>
        <path d="M35 355 L145 293 L255 355 L145 417 Z" class="road"/>
        <path d="M145 417 L255 355 L365 417 L255 479 Z" class="road"/>
        <path d="M255 355 L365 293 L475 355 L365 417 Z" class="road"/>
        <path d="M365 417 L475 355 L585 417 L475 479 Z" class="road"/>
        <g transform="translate(40 120) scale(.64)">
          <path d="M0 182 L155 94 L310 182 L155 270 Z" class="house"/>
          <path d="M32 170 L155 38 L278 170 L155 239 Z" class="roof"/>
          <rect x="136" y="174" width="42" height="62" rx="7" class="gold"/>
        </g>
        <g transform="translate(365 92) scale(.64)">
          <path d="M0 182 L155 94 L310 182 L155 270 Z" fill="#e8c98e" stroke="#263f38" stroke-width="4"/>
          <path d="M32 170 L155 101 L278 170 L155 239 Z" class="house"/>
          <path d="M32 170 L155 38 L278 170 L155 239 Z" class="roof"/>
          <rect x="136" y="174" width="42" height="62" rx="7" class="gold"/>
        </g>
        <g id="life-point-bench" transform="translate(260 300)">
          <path d="M0 72 L105 13 L210 72 L105 131 Z" class="road"/>
          <rect x="55" y="60" width="100" height="20" rx="7" class="wood"/>
          <path d="M68 80 V108 M142 80 V108" stroke="#263f38" stroke-width="6"/>
        </g>
        <g id="rabbit-life-state" transform="translate(176 300) scale(.62)">
          <ellipse cx="32" cy="20" rx="15" ry="32" class="white" stroke="#263f38" stroke-width="4"/>
          <ellipse cx="72" cy="20" rx="15" ry="32" class="white" stroke="#263f38" stroke-width="4"/>
          <circle cx="52" cy="55" r="39" class="white" stroke="#263f38" stroke-width="4"/>
          <ellipse cx="52" cy="112" rx="35" ry="48" fill="#e6b58c" stroke="#263f38" stroke-width="4"/>
          <circle cx="40" cy="52" r="5" class="ink"/><circle cx="64" cy="52" r="5" class="ink"/>
        </g>
        <g id="bear-life-state" transform="translate(352 320) scale(.62)">
          <circle cx="25" cy="22" r="18" fill="#8e6145" stroke="#263f38" stroke-width="4"/><circle cx="78" cy="22" r="18" fill="#8e6145" stroke="#263f38" stroke-width="4"/>
          <circle cx="52" cy="53" r="42" fill="#9f6b49" stroke="#263f38" stroke-width="4"/><ellipse cx="52" cy="108" rx="38" ry="49" fill="#d49a62" stroke="#263f38" stroke-width="4"/>
          <path d="M22 91 Q52 76 82 91 L78 132 Q52 146 26 132 Z" class="teal"/>
        </g>
        <path d="M216 380 C250 405 286 410 320 398" class="path" opacity=".55"/>
        <path d="M394 400 C430 412 455 407 480 388" class="path2" opacity=".55"/>
      </g>
      <rect id="leisure-context-strip" x="22" y="915" width="656" height="210" rx="28" class="panel" filter="url(#shadow)"/>
      <text x="52" y="968" class="t2 ink">居民日常</text>
      <text x="52" y="1008" class="body muted">阿禾回家 · 阿圆在长椅旁休息</text>
      <rect x="52" y="1042" width="248" height="56" rx="18" class="chip"/><text x="90" y="1078" class="small ink">下一工作段：稍后</text>
      <text x="24" y="1224" class="tiny muted">17 · 双居民日常 · 道路通行优先</text>
    </g>
  </g>
</svg>
